<?xml version="1.0" encoding="utf-8"?>
<!-- Generator: Adobe Illustrator 23.1.0, SVG Export Plug-In . SVG Version: 6.00 Build 0)  -->
<svg version="1.1" id="Layer_1" xmlns="http://www.w3.org/2000/svg" xmlns:xlink="http://www.w3.org/1999/xlink" x="0px" y="0px"
	 viewBox="52.3 53.8 23.5 20.2" style="enable-background:new 52.3 53.8 23.5 20.2;" xml:space="preserve">
<g id="twitter">
	<g>
		<path d="M75.7,57.9c-0.2-0.4-1.5-0.4-2.5-0.4c0.3-0.3,2.4-5.7-0.3-2.8c-1.7,2.8-7.4-0.5-9.5,4.3c0,4-7.2-5.5-8.4-3.2
			c0.2,1.1-1.3,2.4,0.1,4.3c-1.8,0.5,0,3.2,1,4.7c-2.8,0.3-0.7,3.4,2.5,3.5c-0.8,1.7-4.2,1.1-6.2,2.1c0.9,3.2,10.3,5.3,15,1.9
			c3.1-2.7,7.4-7.1,5.9-12.5C73.8,59.4,75.5,59.5,75.7,57.9z M72.3,61.9c-1.5,6.3-8.5,14.2-17.4,9.2c3-0.3,8.5-3.2,1.3-5
			c4.3-1.9,1.2-1.2-0.7-4.7c3-1.1-0.6-1.3,0.3-4.8c1.2,2.1,4,3.5,6.8,4.7c2.3,0.7,0.6-1.9,2.8-3.3C67.9,55.9,73.1,56.7,72.3,61.9z
			 M72.6,56.3c-0.1,0.3-0.2,0.7-0.6,0.8C71.7,56.8,72.1,56.6,72.6,56.3z M67.1,59.3c0.7,1.5,3.3-0.5,0.6-1.3
			C67.4,58.2,67.3,58.4,67.1,59.3z"/>
	</g>
</g>
</svg>
